<?xml version="1.0" encoding="UTF-8" standalone="no"?>
<!DOCTYPE svg  PUBLIC '-//W3C//DTD SVG 1.1//EN'  'http://www.w3.org/Graphics/SVG/1.1/DTD/svg11.dtd'>
<svg version="1.1" xmlns="http://www.w3.org/2000/svg">
<defs>
<font id="OrenburgC" horiz-adv-x="616">
<font-face ascent="736" cap-height="754" panose-1="0 0 5 0 0 0 0 0 0 0" unicode-range="U+0020-0491" descent="-264" x-height="470" underline-thickness="50" font-weight="400" units-per-em="1000" underline-position="-150" bbox="-66 -264 1071 968" font-family="OrenburgC"/>
<missing-glyph/>
<glyph unicode=" " horiz-adv-x="308" glyph-name="space"/>
<glyph unicode=" " horiz-adv-x="308" glyph-name="space"/>
<glyph unicode="!" d="M169 99q23 0 39.5 -16t16.5 -39t-16.5 -40t-39.5 -17t-39.5 17t-16.5 40t16.5 39t39.5 16zM128 153v601h82v-601h-82z" horiz-adv-x="338" glyph-name="exclam"/>
<glyph unicode='&quot;' d="M102 754h94l-18 -328h-58zM261 754h94l-18 -328h-58z" horiz-adv-x="457" glyph-name="quotedbl"/>
<glyph unicode="#" d="M236 754h77l-36 -204h124l35 204h79l-35 -204h92v-78h-105l-29 -171h101v-78h-115l-40 -223h-76l39 223h-123l-42 -223h-75l39 223h-102v78h115l29 171h-107v78h119zM266 472l-29 -171h123l29 171h-123z" glyph-name="numbersign"/>
<glyph unicode="$" d="M356 344v-268q47 16 74.5 54.5t27.5 88.5q0 76 -102 125zM290 463v219q-40 -8 -66.5 -40t-26.5 -73q0 -64 93 -106zM290 69v305q-39 16 -66.5 32t-55 39t-41.5 55t-14 72q0 76 50 127t127 62v103h66v-103q50 -7 92.5 -38t65.5 -76l-66 -43q-38 67 -92 77v-247 q43 -18 72 -35t57.5 -42t42.5 -59t14 -77q0 -83 -52.5 -146t-133.5 -80v-110h-66v104q-80 4 -141 59t-75 135l81 23q7 -53 45 -93t90 -44z" glyph-name="dollar"/>
<glyph unicode="%" d="M200 767q69 0 118.5 -48t49.5 -117q0 -68 -49.5 -116t-118.5 -48t-118.5 47.5t-49.5 116.5t49.5 117t118.5 48zM200 703q-42 0 -73 -29.5t-31 -71.5q0 -41 31 -70.5t73 -29.5t73 29.5t31 70.5q0 42 -31 71.5t-73 29.5zM597 767l40 -24l-436 -756l-43 26zM598 316 q69 0 118.5 -48t49.5 -117q0 -68 -49.5 -116t-118.5 -48t-118.5 47.5t-49.5 116.5t49.5 117t118.5 48zM598 252q-42 0 -73 -29.5t-31 -71.5q0 -41 31 -70.5t73 -29.5t73 29.5t31 70.5q0 42 -31 71.5t-73 29.5z" horiz-adv-x="797" glyph-name="percent"/>
<glyph unicode="&amp;" d="M302 492l7 5q1 1 16 11.5t17.5 13t15 12t15.5 14t11 14.5t11 17.5t5.5 18t2.5 21.5q0 34 -24 55.5t-58 21.5q-35 0 -59 -24t-24 -59q0 -11 2 -21t8.5 -21.5t9.5 -16.5t13.5 -20t12.5 -17zM581 0l-81 106q-133 -119 -241 -119q-89 0 -154.5 59t-65.5 147q0 36 11.5 68.5 t25.5 54.5t43.5 47.5t48.5 39t56 38.5l9 6q-2 3 -10 14t-11 15t-10 14.5t-10 15.5l-9 15t-8.5 16.5t-6.5 16.5t-5.5 17.5t-3 17t-1.5 18.5q0 71 47 115.5t118 44.5q66 0 113 -42t47 -106q0 -32 -10 -59t-34 -52t-39 -38t-50 -39l159 -203l85 99l61 -50l-96 -112l128 -165 h-106zM282 385l-36 -24q-28 -19 -44.5 -31.5t-38 -33.5t-32 -45.5t-10.5 -51.5q0 -54 40 -95t93 -41q35 0 75 19.5t61 36t60 50.5z" horiz-adv-x="695" glyph-name="ampersand"/>
<glyph unicode="&apos;" d="M98 754h94l-18 -328h-58z" horiz-adv-x="289" glyph-name="quotesingle"/>
<glyph unicode="(" d="M184 788l71 -34q-80 -212 -80 -480t80 -480l-71 -34q-91 194 -91 514t91 514z" horiz-adv-x="287" glyph-name="parenleft"/>
<glyph unicode=")" d="M32 754l71 34q91 -194 91 -514t-91 -514l-71 34q80 212 80 480t-80 480z" horiz-adv-x="287" glyph-name="parenright"/>
<glyph unicode="*" d="M265 614l-6 140h75l-6 -140l132 49l24 -72l-136 -38l87 -110l-61 -45l-78 118l-78 -118l-61 45l88 110l-136 38l24 72z" horiz-adv-x="592" glyph-name="asterisk"/>
<glyph unicode="+" d="M269 498h78v-203h203v-78h-203v-203h-78v203h-203v78h203v203z" glyph-name="plus"/>
<glyph unicode="," d="M151 110l74 -26l-113 -256l-54 22z" horiz-adv-x="308" glyph-name="comma"/>
<glyph unicode="-" d="M30 278h241v-74h-241v74z" horiz-adv-x="300" glyph-name="hyphen"/>
<glyph unicode="­" d="M30 278h241v-74h-241v74z" horiz-adv-x="300" glyph-name="hyphen"/>
<glyph unicode="." d="M154 99q23 0 39.5 -16t16.5 -39t-16.5 -40t-39.5 -17t-39.5 17t-16.5 40t16.5 39t39.5 16z" horiz-adv-x="308" glyph-name="period"/>
<glyph unicode="/" d="M486 825l66 -30l-469 -952l-65 30z" horiz-adv-x="570" glyph-name="slash"/>
<glyph unicode="0" d="M308 767q68 0 122 -38.5t85 -99.5t47 -126t16 -127q0 -71 -18.5 -139.5t-51.5 -124.5t-85.5 -90.5t-114.5 -34.5t-114.5 34.5t-85.5 90.5t-51.5 124.5t-18.5 139.5q0 62 16 127t47 126t85 99.5t122 38.5zM308 689q-50 0 -88.5 -34t-59 -85.5t-30 -102.5t-8.5 -95 q1 -45 11 -93.5t30 -98.5t58 -82.5t87 -32.5t87 32.5t58 82.5t30 98.5t11 93.5q1 44 -8.5 95t-30 102.5t-59 85.5t-88.5 34z" glyph-name="zero"/>
<glyph unicode="1" d="M283 656l-125 -92v79l164 111h45v-754h-84v656z" glyph-name="one"/>
<glyph unicode="2" d="M63 576q15 84 78 137.5t151 53.5q97 0 167 -63.5t70 -159.5q0 -93 -57 -159l-266 -304v-3h323v-78h-465v42l330 375q51 58 51 126q0 62 -44 104t-106 42q-63 0 -104.5 -39.5t-47.5 -101.5z" glyph-name="two"/>
<glyph unicode="3" d="M133 193q8 -55 51 -91.5t100 -36.5q62 0 104.5 44t42.5 107q0 70 -44.5 106.5t-115.5 34.5v78q69 3 109 29.5t40 92.5q0 60 -36.5 96t-95.5 36q-53 0 -86 -33.5t-42 -84.5l-75 29q16 78 69 122.5t136 44.5q92 0 153 -57t61 -149q0 -51 -26 -96.5t-71 -68.5 q53 -24 80.5 -74t27.5 -111q0 -98 -68 -161t-166 -63q-85 0 -147 48.5t-74 129.5z" glyph-name="three"/>
<glyph unicode="4" d="M476 200h93v-78h-93v-122h-84v122h-363v33l415 599h32v-554zM392 200v341h-2l-237 -341h239z" glyph-name="four"/>
<glyph unicode="5" d="M523 676h-241l-49 -161l45 4q110 0 180.5 -76t70.5 -187q0 -116 -80 -192.5t-197 -76.5q-74 0 -133.5 35.5t-97.5 99.5l67 48q26 -47 70.5 -76t96.5 -29q83 0 136.5 55t53.5 138q0 79 -54 131t-133 52q-60 0 -120 -34l-16 10l101 337h300v-78z" glyph-name="five"/>
<glyph unicode="6" d="M317 65q73 0 124.5 51.5t51.5 124.5t-51 123.5t-125 50.5q-73 0 -124.5 -50.5t-51.5 -123.5t51.5 -124.5t124.5 -51.5zM554 662l-59 -51q-20 29 -60.5 54t-90.5 25q-106 0 -157 -84q-50 -83 -59 -206l3 -1q27 39 79.5 66.5t122.5 27.5q103 0 173.5 -73t70.5 -176 q0 -107 -76.5 -182t-183.5 -75q-80 0 -144.5 41.5t-94.5 114.5q-31 74 -31 189q0 86 18 168.5t50 133.5q84 133 227 133q73 0 129.5 -33.5t82.5 -71.5z" glyph-name="six"/>
<glyph unicode="7" d="M463 676h-382v78h502v-37l-413 -717h-92z" glyph-name="seven"/>
<glyph unicode="8" d="M308 355q-61 0 -103.5 -42.5t-42.5 -102.5t42.5 -102.5t103.5 -42.5t103.5 42.5t42.5 102.5t-42.5 102.5t-103.5 42.5zM308 767q89 0 150 -60t61 -150q0 -50 -24.5 -95.5t-67.5 -69.5q52 -24 81.5 -73t29.5 -108q0 -97 -66 -160.5t-164 -63.5t-164 63.5t-66 160.5 q0 59 29.5 108t81.5 73q-43 24 -67.5 69.5t-24.5 95.5q0 90 61 150t150 60zM308 689q-54 0 -92.5 -38t-38.5 -92q0 -55 38.5 -93.5t92.5 -38.5t92.5 38.5t38.5 93.5q0 54 -38.5 92t-92.5 38z" glyph-name="eight"/>
<glyph unicode="9" d="M301 689q-73 0 -124.5 -51.5t-51.5 -124.5t51 -123.5t125 -50.5q73 0 124.5 50.5t51.5 123.5t-51.5 124.5t-124.5 51.5zM64 92l59 51q20 -29 60.5 -54t90.5 -25q106 0 157 84q50 83 59 206l-3 1q-27 -39 -79.5 -66.5t-122.5 -27.5q-103 0 -173.5 73t-70.5 176 q0 107 76.5 182t183.5 75q80 0 144.5 -41.5t94.5 -114.5q31 -74 31 -189q0 -86 -18 -168.5t-50 -133.5q-84 -133 -227 -133q-73 0 -129.5 33.5t-82.5 71.5z" glyph-name="nine"/>
<glyph unicode=":" d="M154 99q23 0 39.5 -16t16.5 -39t-16.5 -40t-39.5 -17t-39.5 17t-16.5 40t16.5 39t39.5 16zM154 483q23 0 39.5 -16t16.5 -39t-16.5 -40t-39.5 -17t-39.5 17t-16.5 40t16.5 39t39.5 16z" horiz-adv-x="308" glyph-name="colon"/>
<glyph unicode=";" d="M153 110l74 -26l-113 -256l-54 22zM179 483q23 0 39.5 -16t16.5 -39t-16.5 -40t-39.5 -17t-39.5 17t-16.5 40t16.5 39t39.5 16z" horiz-adv-x="308" glyph-name="semicolon"/>
<glyph unicode="&lt;" d="M550 498v-85l-368 -157l368 -157v-85l-484 207v70z" glyph-name="less"/>
<glyph unicode="=" d="M66 373h484v-78h-484v78zM66 217h484v-78h-484v78z" glyph-name="equal"/>
<glyph unicode="&gt;" d="M66 413v85l484 -207v-70l-484 -207v85l368 157z" glyph-name="greater"/>
<glyph unicode="?" d="M197 153v137q0 51 11 88.5t27 56.5t35.5 37t35.5 30t27 33.5t11 50.5q0 46 -29 75t-74 29q-42 0 -70 -28.5t-28 -70.5v-32l-81 17v20q0 76 53.5 123.5t130.5 47.5q76 0 128 -51.5t52 -128.5q0 -85 -54 -134q-2 -2 -16.5 -14.5t-16.5 -14.5l-13.5 -13.5t-14 -15.5 t-10.5 -15t-10 -19t-6 -19.5t-5 -24t-1 -27.5v-137h-82zM242 99q23 0 39.5 -16t16.5 -39t-16.5 -40t-39.5 -17t-39.5 17t-16.5 40t16.5 39t39.5 16z" horiz-adv-x="488" glyph-name="question"/>
<glyph unicode="@" d="M261 346q0 -53 28.5 -86.5t79.5 -33.5q61 0 93.5 42t40.5 104q7 60 -21.5 97.5t-80.5 37.5q-58 0 -99 -50t-41 -111zM528 505l14 61h71l-50 -255q-1 -3 -2.5 -11.5t-2 -13t-2 -12t-1.5 -12.5v-11.5t1.5 -10t4 -7.5t6.5 -5.5t10 -1.5q36 0 74 61t42 130q7 128 -72.5 203 t-205.5 75q-133 0 -220 -90.5t-87 -227.5q0 -142 93 -230t231 -88q127 0 191 46l70 -51q-130 -67 -269 -67q-163 0 -275.5 111.5t-112.5 278.5q0 166 110.5 278t271.5 112q139 0 235 -86q112 -99 112 -229q0 -129 -62 -210q-34 -45 -75 -66.5t-79 -19.5q-45 2 -54 61 q-61 -61 -136 -61q-67 0 -117.5 54t-50.5 129q0 94 57 165t147 71q79 0 133 -70z" horiz-adv-x="800" glyph-name="at"/>
<glyph unicode="A" d="M511 214h-322l-91 -214h-92l332 754h32l323 -754h-93zM478 292l-126 302l-129 -302h255z" horiz-adv-x="699" glyph-name="A"/>
<glyph unicode="B" d="M160 350v-272h84q193 0 193 138q0 134 -204 134h-73zM76 0v754h124q113 0 182.5 -48t69.5 -156q0 -98 -74 -147q66 -16 104.5 -70t38.5 -123q0 -107 -75 -158.5t-195 -51.5h-175zM160 676v-254h32q42 0 69 4t54 16t40 39t13 69q0 78 -42.5 102t-132.5 24h-33z" horiz-adv-x="568" glyph-name="B"/>
<glyph unicode="C" d="M665 685l-46 -64q-35 30 -87.5 49t-110.5 19q-125 0 -214.5 -93t-89.5 -219t90 -219t216 -93q125 0 218 88l53 -62q-121 -104 -268 -104q-160 0 -276.5 113.5t-116.5 273.5q0 162 115.5 277.5t277.5 115.5q129 0 239 -82z" horiz-adv-x="717" glyph-name="C"/>
<glyph unicode="D" d="M76 0v754h142q94 0 163 -19t131 -72q125 -108 125 -287q0 -171 -123 -281q-63 -56 -131.5 -75.5t-166.5 -19.5h-140zM160 78h61q77 0 133.5 16.5t104.5 61.5q94 88 94 221q0 140 -98 226q-48 43 -103.5 58t-130.5 15h-61v-598z" horiz-adv-x="678" glyph-name="D"/>
<glyph unicode="E" d="M76 0v754h391v-78h-307v-224h298v-78h-298v-296h307v-78h-391z" horiz-adv-x="534" glyph-name="E"/>
<glyph unicode="F" d="M419 676h-259v-244h251v-78h-251v-354h-84v754h343v-78z" horiz-adv-x="478" glyph-name="F"/>
<glyph unicode="G" d="M463 379h314q0 -88 -15 -149.5t-63 -116.5q-51 -60 -125.5 -93t-153.5 -33q-159 0 -273.5 114.5t-114.5 273.5q0 162 115 277t278 115q194 0 319 -163l-61 -57q-101 142 -259 142q-128 0 -218 -93t-90 -222q0 -123 88 -213q43 -43 100 -69.5t114 -26.5q103 0 186 67.5 t83 168.5h-224v78z" horiz-adv-x="820" glyph-name="G"/>
<glyph unicode="H" d="M164 448h386v306h84v-754h-84v370h-386v-370h-84v754h84v-306z" horiz-adv-x="714" glyph-name="H"/>
<glyph unicode="I" d="M162 754v-754h-84v754h84z" horiz-adv-x="239" glyph-name="I"/>
<glyph unicode="J" d="M236 754v-532q0 -40 -1.5 -62.5t-10 -55t-26.5 -55.5q-47 -62 -130 -62q-67 0 -134 56l47 65q46 -43 89 -43q20 0 34.5 7t23 21.5t14 27.5t7.5 34.5t2.5 33.5t0.5 33v532h84z" horiz-adv-x="314" glyph-name="J"/>
<glyph unicode="K" d="M160 431l321 323h113l-354 -351l366 -403h-116l-309 346l-21 -21v-325h-84v754h84v-323z" horiz-adv-x="611" glyph-name="K"/>
<glyph unicode="L" d="M160 754v-676h208v-78h-292v754h84z" horiz-adv-x="375" glyph-name="L"/>
<glyph unicode="M" d="M21 0l145 754h27l255 -590l256 590h27l145 -754h-86l-97 510h-2l-229 -510h-28l-228 510h-2l-97 -510h-86z" horiz-adv-x="896" glyph-name="M"/>
<glyph unicode="N" d="M81 0v754h30l558 -584v584h84v-754h-32l-556 581v-581h-84z" horiz-adv-x="834" glyph-name="N"/>
<glyph unicode="O" d="M431 767q162 0 277.5 -114.5t115.5 -276.5t-115.5 -275.5t-277.5 -113.5t-277.5 113.5t-115.5 275.5t115.5 276.5t277.5 114.5zM431 689q-129 0 -219 -91.5t-90 -220.5q0 -128 90.5 -220t218.5 -92t218.5 92t90.5 220q0 129 -90 220.5t-219 91.5z" horiz-adv-x="862" glyph-name="O"/>
<glyph unicode="P" d="M160 330v-330h-84v754h144q62 0 106 -7t81 -33q41 -29 63 -74.5t22 -97.5q0 -102 -72 -162q-61 -50 -179 -50h-81zM160 676v-268h76q172 0 172 136q0 36 -11.5 61t-29 38.5t-45.5 21t-52 9.5t-59 2h-51z" horiz-adv-x="532" glyph-name="P"/>
<glyph unicode="Q" d="M538 293l119 -125q83 87 83 209q0 129 -90 220.5t-219 91.5t-219 -91.5t-90 -220.5q0 -128 90.5 -220t218.5 -92q94 0 168 56l-119 119zM772 -59l-114 120q-46 -35 -107.5 -54.5t-119.5 -19.5q-162 0 -277.5 113.5t-115.5 275.5t115.5 276.5t277.5 114.5 q163 0 278 -115.5t115 -277.5q0 -149 -109 -266l108 -111z" horiz-adv-x="862" glyph-name="Q"/>
<glyph unicode="R" d="M552 0h-100l-179 336h-110v-336h-84v754h149q58 0 104 -9t87 -31t63 -64.5t22 -103.5q0 -80 -43.5 -129t-103.5 -64zM420 540q0 36 -11 61.5t-27 40t-43 22.5t-51.5 10t-59.5 2h-65v-268h66q41 0 71 4.5t59.5 17.5t45 40.5t15.5 69.5z" horiz-adv-x="582" glyph-name="R"/>
<glyph unicode="S" d="M485 650l-67 -43q-47 82 -130 82q-51 0 -88 -33t-37 -84q0 -23 10 -42t31 -33.5t35.5 -22.5t41.5 -20l50 -22q43 -19 71 -35.5t55.5 -41t41 -58.5t13.5 -77q0 -98 -69 -165.5t-168 -67.5q-90 0 -153.5 53.5t-81.5 141.5l82 23q8 -59 50 -99.5t101 -40.5q62 0 108.5 42.5 t46.5 104.5q0 31 -10.5 55t-33.5 42t-42 28t-53 25l-46 20q-80 35 -122 77t-42 116q0 85 62 138.5t149 53.5q63 0 114 -30.5t81 -86.5z" horiz-adv-x="559" glyph-name="S"/>
<glyph unicode="T" d="M289 676v-676h-84v676h-192v78h470v-78h-194z" horiz-adv-x="500" glyph-name="T"/>
<glyph unicode="U" d="M158 754v-449q0 -43 0.5 -61t8.5 -51.5t24 -55.5q24 -33 66.5 -52.5t85.5 -19.5q41 0 81.5 18t66.5 49q17 21 26 51.5t10 51t1 58.5v6.5v5.5v449h84v-472q0 -71 -12.5 -118.5t-53.5 -90.5q-83 -86 -203 -86q-116 0 -195 77q-45 43 -59.5 93t-14.5 125v472h84z" horiz-adv-x="685" glyph-name="U"/>
<glyph unicode="V" d="M97 754l215 -575l215 575h91l-289 -754h-34l-289 754h91z" horiz-adv-x="624" glyph-name="V"/>
<glyph unicode="W" d="M96 754l198 -565l228 565h32l228 -565l198 565h91l-275 -754h-30l-228 568l-228 -568h-30l-275 754h91z" horiz-adv-x="1076" glyph-name="W"/>
<glyph unicode="X" d="M236 390l-204 364h96l154 -284l154 284h96l-204 -364l223 -390h-96l-173 310l-173 -310h-96z" horiz-adv-x="564" glyph-name="X"/>
<glyph unicode="Y" d="M255 324l-247 430h97l192 -336l192 336h97l-247 -430v-324h-84v324z" horiz-adv-x="593" glyph-name="Y"/>
<glyph unicode="Z" d="M153 78h404v-78h-527v27l395 649h-355v78h482v-22z" horiz-adv-x="586" glyph-name="Z"/>
<glyph unicode="[" d="M186 714v-880h108v-74h-190v1028h190v-74h-108z" horiz-adv-x="315" glyph-name="bracketleft"/>
<glyph unicode="\" d="M18 795l66 30l468 -825l-65 -30zM487 -30l65 30z" horiz-adv-x="570" glyph-name="backslash"/>
<glyph unicode="]" d="M129 -166v880h-108v74h190v-1028h-190v74h108z" horiz-adv-x="315" glyph-name="bracketright"/>
<glyph unicode="^" d="M66 322l206 432h72l206 -432h-89l-153 328l-155 -328h-87z" glyph-name="asciicircum"/>
<glyph unicode="_" d="M500 -113v-75h-500v75h500z" horiz-adv-x="500" glyph-name="underscore"/>
<glyph unicode="`" d="M78 706l84 38l119 -164l-50 -28z" horiz-adv-x="358" glyph-name="grave"/>
<glyph unicode="a" d="M45 136q0 45 22 77t60 48t78 22.5t87 6.5h92q-3 28 -7 44t-15.5 36t-36.5 29.5t-63 9.5q-82 0 -129 -36l-40 60q60 50 160 50q213 0 213 -219v-264h-80v65h-2q-62 -78 -152 -78q-80 0 -133.5 39.5t-53.5 109.5zM384 196v28h-62q-41 0 -67 -2t-59.5 -9.5t-50.5 -26 t-17 -48.5q0 -79 112 -79q67 0 105.5 39t38.5 98z" horiz-adv-x="535" glyph-name="a"/>
<glyph unicode="b" d="M301 409q-67 0 -110 -50t-43 -119q0 -73 41.5 -126t112.5 -53q74 0 115.5 51.5t41.5 126.5q0 73 -43 121.5t-115 48.5zM72 0v754h80v-351h2q61 80 161 80q102 0 164 -72.5t62 -175.5q0 -102 -62.5 -175t-162.5 -73q-104 0 -162 78h-2v-65h-80z" horiz-adv-x="577" glyph-name="b"/>
<glyph unicode="c" d="M449 414l-51 -54q-49 49 -121 49q-71 0 -118.5 -51t-47.5 -123t45 -123t117 -51q86 0 141 65l54 -50q-74 -89 -189 -89q-107 0 -178.5 71t-71.5 177q0 104 73.5 176t177.5 72q56 0 101 -22t68 -47z" horiz-adv-x="476" glyph-name="c"/>
<glyph unicode="d" d="M271 409q-67 0 -110 -50t-43 -119q0 -73 41.5 -126t112.5 -53q74 0 115.5 51.5t41.5 126.5q0 73 -43 121.5t-115 48.5zM425 0v65h-2q-60 -78 -162 -78q-100 0 -162.5 73t-62.5 174q0 104 62 176.5t164 72.5q100 0 161 -80h2v351h80v-754h-80z" horiz-adv-x="577" glyph-name="d"/>
<glyph unicode="e" d="M485 218h-369q1 -66 47 -111.5t115 -45.5q87 0 137 71l64 -38q-35 -50 -88.5 -78.5t-118.5 -28.5q-105 0 -171.5 69.5t-66.5 172.5q0 109 61 181.5t167 72.5q109 0 169 -77.5t54 -187.5zM120 286h281q-8 52 -47 87.5t-91 35.5t-94 -36t-49 -87z" horiz-adv-x="519" glyph-name="e"/>
<glyph unicode="f" d="M163 396v-396h-80v396h-44v74h44v103q0 88 21 122q37 59 121 59h41v-80h-38q-19 0 -31.5 -6.5t-19.5 -14.5t-10 -27.5t-3.5 -34t-0.5 -46.5v-75h103v-74h-103z" horiz-adv-x="274" glyph-name="f"/>
<glyph unicode="g" d="M266 409q-67 0 -110 -50t-43 -119q0 -73 41.5 -126t112.5 -53q74 0 115.5 51.5t41.5 126.5q0 73 -43 121.5t-115 48.5zM500 470v-447q0 -49 -1.5 -74.5t-12.5 -62t-34 -65.5q-65 -83 -182 -83q-82 0 -142 41t-80 113l75 29q10 -51 49.5 -80t96.5 -29q45 0 75.5 15.5 t46.5 44t22.5 61.5t6.5 76v56h-2q-28 -37 -71.5 -57.5t-91.5 -20.5q-100 0 -162 72t-62 174q0 103 63 176.5t164 73.5q100 0 160 -80h2v67h80z" horiz-adv-x="580" glyph-name="g"/>
<glyph unicode="h" d="M76 754h80v-339l2 -2q51 70 134 70q90 0 125 -55t35 -149v-279h-80v265q0 34 -2.5 55.5t-11.5 44t-30.5 33.5t-54.5 11q-32 0 -54.5 -12t-34.5 -29t-18.5 -44t-8 -48.5t-1.5 -52.5v-223h-80v754z" horiz-adv-x="528" glyph-name="h"/>
<glyph unicode="i" d="M171 470v-470h-80v470h80zM131 704q23 0 40 -17t17 -40q0 -24 -17 -40.5t-40 -16.5t-40 16.5t-17 40.5q0 23 17 40t40 17z" horiz-adv-x="262" glyph-name="i"/>
<glyph unicode="j" d="M171 -83q0 -88 -21 -122q-37 -59 -121 -59h-36v80h33q42 0 53.5 29t11.5 100v525h80v-553zM188 647q0 -24 -17 -40.5t-40 -16.5t-40 16.5t-17 40.5q0 23 17 40t40 17t40 -17t17 -40z" horiz-adv-x="262" glyph-name="j"/>
<glyph unicode="k" d="M152 754v-458l171 174h107l-201 -200l239 -270h-106l-189 214l-21 -21v-193h-80v754h80z" horiz-adv-x="470" glyph-name="k"/>
<glyph unicode="l" d="M154 754v-754h-80v754h80z" horiz-adv-x="227" glyph-name="l"/>
<glyph unicode="m" d="M156 470v-51h2q41 64 113 64q42 0 76.5 -21t53.5 -57q20 38 58.5 58t82.5 20q150 0 150 -197v-286h-80v273q0 29 -2 48t-10 42t-26.5 34.5t-47.5 11.5q-33 0 -54.5 -14t-31 -40t-13 -50t-3.5 -56v-249h-80v267q0 142 -84 142q-33 0 -55.5 -15t-32 -42t-13 -52t-3.5 -57 v-243h-80v470h80z" horiz-adv-x="768" glyph-name="m"/>
<glyph unicode="n" d="M156 470v-57h2q51 70 134 70q90 0 125 -55t35 -149v-279h-80v265q0 34 -2.5 55.5t-11.5 44t-30.5 33.5t-54.5 11q-32 0 -54.5 -12t-34.5 -29t-18.5 -44t-8 -48.5t-1.5 -52.5v-223h-80v470h80z" horiz-adv-x="528" glyph-name="n"/>
<glyph unicode="o" d="M281 -13q-103 0 -175 72t-72 175q0 104 72 176.5t175 72.5t175 -72.5t72 -176.5q0 -103 -72 -175t-175 -72zM281 409q-73 0 -120 -50.5t-47 -123.5t47 -123.5t120 -50.5t120 50.5t47 123.5t-47 123.5t-120 50.5z" horiz-adv-x="562" glyph-name="o"/>
<glyph unicode="p" d="M301 409q-67 0 -110 -50t-43 -119q0 -73 41.5 -126t112.5 -53q74 0 115.5 51.5t41.5 126.5q0 73 -43 121.5t-115 48.5zM152 470v-67h2q60 80 162 80q100 0 162.5 -73.5t62.5 -175.5q0 -104 -61.5 -175.5t-164.5 -71.5q-102 0 -161 79h-2v-330h-80v734h80z" horiz-adv-x="577" glyph-name="p"/>
<glyph unicode="q" d="M271 409q-67 0 -110 -50t-43 -119q0 -73 41.5 -126t112.5 -53q74 0 115.5 51.5t41.5 126.5q0 73 -43 121.5t-115 48.5zM505 470v-734h-80v330h-2q-59 -79 -161 -79q-103 0 -164.5 71.5t-61.5 174.5q0 102 62 176t163 74q102 0 162 -80h2v67h80z" horiz-adv-x="577" glyph-name="q"/>
<glyph unicode="r" d="M152 470v-51h2q22 28 44 39.5t60 11.5h24v-74h-38q-31 0 -51 -14t-28 -40.5t-10.5 -47.5t-2.5 -51v-243h-80v470h80z" horiz-adv-x="303" glyph-name="r"/>
<glyph unicode="s" d="M333 396l-67 -35q-9 20 -26 34t-38 14q-22 0 -40 -15t-18 -37q0 -9 2.5 -16.5t10 -14.5t13 -12t18.5 -11t19 -9t23 -10t23 -9q50 -21 79.5 -51t29.5 -84q0 -66 -46.5 -109.5t-112.5 -43.5q-59 0 -103 31.5t-63 87.5l71 30q17 -37 38 -56t58 -19q33 0 54.5 20t21.5 52 q0 29 -22 48t-53 31.5t-62 27t-53 42t-22 68.5q0 58 41 95.5t99 37.5q40 0 74.5 -24.5t50.5 -62.5z" horiz-adv-x="399" glyph-name="s"/>
<glyph unicode="t" d="M235 -2h-20q-84 0 -121 59q-21 34 -21 122v217h-49v74h49v169h80v-169h82v-74h-82v-189q0 -71 11.5 -100t53.5 -29h17v-80z" horiz-adv-x="270" glyph-name="t"/>
<glyph unicode="u" d="M150 470v-262q0 -27 1.5 -46t8 -39.5t17.5 -33t31 -20.5t48 -8t48 8t31 20.5t17.5 33t8 39.5t1.5 46v262h80v-271q0 -212 -186 -212t-186 212v271h80z" horiz-adv-x="512" glyph-name="u"/>
<glyph unicode="v" d="M92 470l140 -316l140 316h90l-216 -470h-28l-217 470h91z" horiz-adv-x="463" glyph-name="v"/>
<glyph unicode="w" d="M94 470l139 -318l131 318h30l132 -318l140 318h91l-218 -470h-29l-131 317l-131 -317h-29l-216 470h91z" horiz-adv-x="760" glyph-name="w"/>
<glyph unicode="x" d="M442 470l-159 -218l187 -252h-100l-133 188h-3l-133 -188h-100l187 254l-158 216h98l106 -157h3l107 157h98z" horiz-adv-x="471" glyph-name="x"/>
<glyph unicode="y" d="M216 -1l-199 471h87l146 -362h2l122 362h87l-195 -529q-75 -205 -197 -205h-13v67h8q82 0 131 137z" horiz-adv-x="472" glyph-name="y"/>
<glyph unicode="z" d="M167 74h294v-74h-436v23l289 373h-246v74h386v-25z" horiz-adv-x="488" glyph-name="z"/>
<glyph unicode="{" d="M51 242v64q47 15 61 50.5t14 109.5v187q0 56 29.5 95.5t55.5 39.5h73v-74h-40q-13 0 -20.5 -4.5t-11 -17t-4 -22.5t-0.5 -32v-189q0 -41 -9.5 -75t-24 -54.5t-24.5 -30.5t-18 -15q12 -7 26.5 -22.5t32 -58t17.5 -95.5v-188q0 -22 0.5 -32t4 -22.5t11 -17t20.5 -4.5h40 v-74h-73q-26 0 -55.5 39.5t-29.5 95.5v186q0 74 -14 110t-61 51z" horiz-adv-x="334" glyph-name="braceleft"/>
<glyph unicode="|" d="M324 825v-825h-78v825h78z" horiz-adv-x="570" glyph-name="bar"/>
<glyph unicode="}" d="M283 306v-64q-47 -15 -61 -51t-14 -110v-186q0 -56 -29.5 -95.5t-55.5 -39.5h-73v74h40q13 0 20.5 4.5t11 17t4 22.5t0.5 32v188q0 41 9.5 75.5t24 55t24.5 30.5t18 15q-12 7 -26.5 22.5t-32 57.5t-17.5 95v189q0 22 -0.5 32t-4 22.5t-11 17t-20.5 4.5h-40v74h73 q26 0 55.5 -39.5t29.5 -95.5v-187q0 -74 14 -109.5t61 -50.5z" horiz-adv-x="334" glyph-name="braceright"/>
<glyph unicode="~" d="M135 172l-69 28q53 147 139 147q41 0 109 -45q9 -6 25.5 -17.5t26.5 -18t23 -12.5t22 -6q20 0 39 27.5t32 69.5l68 -28q-50 -147 -139 -147q-36 0 -102 44l-18 12t-17.5 11.5t-15 9.5t-15.5 9t-13 6t-13 4.5t-12 1.5q-40 0 -70 -96z" glyph-name="asciitilde"/>
<glyph unicode="£" d="M208 268h-127v64h100l-19 37q-4 7 -15.5 29t-15.5 30.5t-12 28t-11.5 32t-6.5 30t-3 34.5q0 91 65.5 152.5t157.5 61.5q97 0 157.5 -64.5t61.5 -161.5l-82 -22q-1 72 -33.5 120t-101.5 48q-58 0 -98.5 -39t-40.5 -97q0 -35 14.5 -72t40 -81t34.5 -66h142v-64h-120 q7 -26 7 -45q0 -51 -33 -108l5 -2q108 -43 145 -43q30 0 50.5 20.5t40.5 54.5l68 -41q-23 -50 -63 -83t-91 -33q-41 0 -122 29q-83 29 -110 29q-54 0 -90 -61l-65 44q59 96 146 97q32 45 32 93q0 27 -7 49z" glyph-name="sterling"/>
<glyph unicode="¤" d="M66 498l36 36l42 -42q80 58 164 58t164 -58l42 42l36 -36l-40 -40q53 -82 53 -158t-53 -158l40 -40l-36 -36l-42 42q-80 -58 -164 -58t-164 58l-42 -42l-36 36l40 40q-53 82 -53 158t53 158zM308 486q-82 0 -137 -53t-54 -133q2 -76 57.5 -131t133.5 -55t133.5 55 t57.5 131q1 80 -54 133t-137 53z" glyph-name="currency"/>
<glyph unicode="¦" d="M324 330v-330h-78v330h78zM324 825v-330h-78v330h78z" horiz-adv-x="570" glyph-name="brokenbar"/>
<glyph unicode="§" d="M296 402q-46 0 -78 -32t-32 -78t32 -78.5t78 -32.5t78.5 32.5t32.5 78.5t-32.5 78t-78.5 32zM105 4h81q0 -53 25 -84.5t77 -31.5q49 0 76 26t27 74q0 18 -3.5 32.5t-14.5 26t-17 18t-25.5 16t-25.5 12t-30 11.5q-85 33 -112 55q-61 48 -61 132q0 56 27.5 99t77.5 64 q-88 44 -88 141q0 76 55.5 124t133.5 48q41 0 81 -18t62 -49q34 -48 36 -129h-80q-6 119 -100 119q-46 0 -76 -27.5t-30 -73.5q0 -13 2 -24t8 -20t11 -16t16 -14t17 -11.5t21 -10.5t21.5 -8.5t24.5 -8.5l24 -8q32 -12 53.5 -23.5t44.5 -31.5t34.5 -51t11.5 -73 q0 -106 -105 -160q88 -45 88 -146q0 -79 -52.5 -125.5t-133.5 -46.5q-174 0 -182 193z" horiz-adv-x="592" glyph-name="section"/>
<glyph unicode="©" d="M792 377q0 -163 -114 -276.5t-278 -113.5t-278 113.5t-114 276.5t114 276.5t278 113.5t278 -113.5t114 -276.5zM732 377q0 137 -98.5 233.5t-233.5 96.5t-233.5 -96.5t-98.5 -233.5t98.5 -233.5t233.5 -96.5t233.5 96.5t98.5 233.5zM553 188q-61 -45 -135 -45 q-96 0 -166 68t-70 164q0 97 69 166.5t167 69.5q75 0 135 -44v-63q-57 60 -138 60q-75 0 -129 -55.5t-54 -131.5q0 -75 54 -131t130 -56q77 0 137 60v-62z" horiz-adv-x="800" glyph-name="copyright"/>
<glyph unicode="«" d="M297 240l135 -166l-53 -41l-168 207l168 213l53 -42zM127 240l135 -166l-53 -41l-168 207l168 213l53 -42z" horiz-adv-x="500" glyph-name="guillemotleft"/>
<glyph unicode="¬" d="M472 103v192h-406v78h484v-270h-78z" glyph-name="logicalnot"/>
<glyph unicode="®" d="M792 377q0 -163 -114 -276.5t-278 -113.5t-278 113.5t-114 276.5t114 276.5t278 113.5t278 -113.5t114 -276.5zM732 377q0 137 -98.5 233.5t-233.5 96.5t-233.5 -96.5t-98.5 -233.5t98.5 -233.5t233.5 -96.5t233.5 96.5t98.5 233.5zM544 151h-62l-136 199h-13v-199h-50 v452h65q166 0 166 -124q0 -53 -31 -87t-83 -38zM463 475q0 50 -30 66t-85 16h-15v-163h16q52 0 83 16.5t31 64.5z" horiz-adv-x="800" glyph-name="registered"/>
<glyph unicode="°" d="M350 617q0 -62 -44 -106t-106 -44t-105.5 44t-44.5 106q0 62 44 106t106 44t106 -44.5t44 -105.5zM302 617q0 42 -30 72t-73 30q-42 0 -71.5 -30t-29.5 -72q1 -43 30 -72.5t72 -29.5q42 0 72 29.5t30 72.5z" horiz-adv-x="400" glyph-name="degree"/>
<glyph unicode="±" d="M269 498h78v-153h203v-78h-203v-153h-78v153h-203v78h203v153zM66 0v78h484v-78h-484z" glyph-name="plusminus"/>
<glyph unicode="¶" d="M534 754v-65h-58v-842h-65v842h-81v-842h-65v436q-86 0 -142.5 57t-63.5 157q-7 95 56.5 176t158.5 81h260zM265 -153h65h-65z" horiz-adv-x="592" glyph-name="paragraph"/>
<glyph unicode="»" d="M68 74l135 166l-135 171l53 42l168 -213l-168 -207zM238 74l135 166l-135 171l53 42l168 -213l-168 -207z" horiz-adv-x="500" glyph-name="guillemotright"/>
<glyph unicode="÷" d="M66 217v78h484v-78h-484zM308 124q23 0 40 -17t17 -40q0 -24 -17 -40.5t-40 -16.5t-40 16.5t-17 40.5q0 23 17 40t40 17zM308 502q23 0 40 -17t17 -40q0 -24 -17 -40.5t-40 -16.5t-40 16.5t-17 40.5q0 23 17 40t40 17z" glyph-name="divide"/>
<glyph unicode="Ё" d="M76 0v754h391v-78h-307v-224h298v-78h-298v-296h307v-78h-391zM169 899q23 0 38.5 -15.5t15.5 -38.5t-15.5 -38.5t-38.5 -15.5t-38.5 15.5t-15.5 38.5t15.5 38.5t38.5 15.5zM366 899q22 0 38 -15.5t16 -38.5t-16 -38.5t-38 -15.5t-38 15.5t-16 38.5t16 38.5t38 15.5z" horiz-adv-x="534" glyph-name="afii10023"/>
<glyph unicode="Ђ" d="M276 358v-358h-84v676h-182v78h450v-78h-184v-229q61 36 128 36q104 0 177.5 -72t73.5 -176t-69.5 -176t-160.5 -72q-42 0 -60.5 3.5t-44.5 16.5v97h2q31 -27 53 -35q24 -8 56 -8q57 0 99.5 52t42.5 122q0 72 -47.5 123t-118.5 51q-78 0 -131 -51z" horiz-adv-x="680" glyph-name="afii10051"/>
<glyph unicode="Ѓ" d="M321 968l64 -48l-163 -134l-40 38zM439 676h-279v-676h-84v754h363v-78z" horiz-adv-x="450" glyph-name="afii10052"/>
<glyph unicode="Є" d="M694 91q-121 -104 -268 -104q-160 0 -276.5 113.5t-116.5 273.5q0 162 115.5 277.5t277.5 115.5q129 0 239 -82l-46 -64q-35 30 -87.5 49t-110.5 19q-110 0 -194.5 -74.5t-104.5 -182.5h368v-78h-372q9 -118 97.5 -203.5t207.5 -85.5q125 0 218 88z" horiz-adv-x="717" glyph-name="afii10053"/>
<glyph unicode="Ѕ" d="M485 650l-67 -43q-47 82 -130 82q-51 0 -88 -33t-37 -84q0 -23 10 -42t31 -33.5t35.5 -22.5t41.5 -20l50 -22q43 -19 71 -35.5t55.5 -41t41 -58.5t13.5 -77q0 -98 -69 -165.5t-168 -67.5q-90 0 -153.5 53.5t-81.5 141.5l82 23q8 -59 50 -99.5t101 -40.5q62 0 108.5 42.5 t46.5 104.5q0 31 -10.5 55t-33.5 42t-42 28t-53 25l-46 20q-80 35 -122 77t-42 116q0 85 62 138.5t149 53.5q63 0 114 -30.5t81 -86.5z" horiz-adv-x="559" glyph-name="afii10054"/>
<glyph unicode="І" d="M162 754v-754h-84v754h84z" horiz-adv-x="239" glyph-name="afii10055"/>
<glyph unicode="Ї" d="M162 754v-754h-84v754h84zM21 899q23 0 38.5 -15.5t15.5 -38.5t-15.5 -38.5t-38.5 -15.5t-38.5 15.5t-15.5 38.5t15.5 38.5t38.5 15.5zM218 899q22 0 38 -15.5t16 -38.5t-16 -38.5t-38 -15.5t-38 15.5t-16 38.5t16 38.5t38 15.5z" horiz-adv-x="239" glyph-name="afii10056"/>
<glyph unicode="Ј" d="M236 754v-532q0 -40 -1.5 -62.5t-10 -55t-26.5 -55.5q-47 -62 -130 -62q-67 0 -134 56l47 65q46 -43 89 -43q20 0 34.5 7t23 21.5t14 27.5t7.5 34.5t2.5 33.5t0.5 33v532h84z" horiz-adv-x="314" glyph-name="afii10057"/>
<glyph unicode="Љ" d="M895 220q0 -116 -74 -168t-196 -52h-145v676h-256v-440q0 -111 -48.5 -173.5t-143.5 -62.5h-22v74h8q67 0 94.5 48.5t27.5 137.5v494h424v-326h88q66 0 118 -17.5t88.5 -66t36.5 -124.5zM811 216q0 134 -204 134h-43v-272h54q193 0 193 138z" horiz-adv-x="930" glyph-name="afii10058"/>
<glyph unicode="Њ" d="M604 428h88q66 0 118 -17.5t88.5 -66t36.5 -124.5q0 -116 -74 -168t-196 -52h-145v350h-356v-350h-84v754h84v-326h356v326h84v-326zM604 350v-272h54q193 0 193 138q0 134 -204 134h-43z" horiz-adv-x="967" glyph-name="afii10059"/>
<glyph unicode="Ћ" d="M650 0h-84v276q0 98 -154 98q-70 0 -136 -8v-366h-84v676h-182v78h450v-78h-184v-236q90 8 150 8q95 0 159.5 -48t64.5 -132v-268z" horiz-adv-x="700" glyph-name="afii10060"/>
<glyph unicode="Ќ" d="M381 968l64 -48l-163 -134l-40 38zM529 754h32v-74h-27q-16 0 -33.5 -13.5t-24.5 -35.5l-50 -166q-14 -48 -45 -64v-2q14 -2 29.5 -15t23.5 -38l77 -229q14 -43 78 -43h10v-74h-24q-55 0 -94.5 27t-56.5 78l-71 214q-13 36 -44 36h-145v-355h-84v754h84v-321h133 q17 0 32 11t21 30l56 186q13 43 47 68.5t76 25.5z" horiz-adv-x="620" glyph-name="afii10061"/>
<glyph unicode="Ў" d="M557 754l-227 -518q-23 -54 -41.5 -88t-46.5 -72t-63 -57t-77 -19h-21v80h16q92 0 143 156l1 3l-226 515h94l177 -409h2l179 409h90zM122 880l64 20q26 -68 105 -68t105 68l64 -20q-5 -42 -57 -79t-112 -37t-111.5 36t-57.5 80z" horiz-adv-x="575" glyph-name="afii10062"/>
<glyph unicode="Џ" d="M634 0h-225v-206h-84v206h-245v754h84v-676h386v676h84v-754z" horiz-adv-x="714" glyph-name="afii10145"/>
<glyph unicode="А" d="M511 214h-322l-91 -214h-92l332 754h32l323 -754h-93zM478 292l-126 302l-129 -302h255z" horiz-adv-x="699" glyph-name="afii10017"/>
<glyph unicode="Б" d="M160 350v-272h84q193 0 193 138q0 134 -204 134h-73zM449 754v-78h-289v-248h118q66 0 118 -17.5t88.5 -66t36.5 -124.5q0 -116 -74 -168t-196 -52h-175v754h373z" horiz-adv-x="558" glyph-name="afii10018"/>
<glyph unicode="В" d="M160 350v-272h84q193 0 193 138q0 134 -204 134h-73zM76 0v754h124q113 0 182.5 -48t69.5 -156q0 -98 -74 -147q66 -16 104.5 -70t38.5 -123q0 -107 -75 -158.5t-195 -51.5h-175zM160 676v-254h32q42 0 69 4t54 16t40 39t13 69q0 78 -42.5 102t-132.5 24h-33z" horiz-adv-x="568" glyph-name="afii10019"/>
<glyph unicode="Г" d="M469 676h-309v-676h-84v754h393v-78z" horiz-adv-x="470" glyph-name="afii10020"/>
<glyph unicode="Д" d="M682 -206h-84v206h-509v-206h-84v284h22q63 0 105.5 85t42.5 193v398h422v-676h85v-284zM513 78v598h-254v-290q0 -112 -24.5 -191.5t-67.5 -116.5h346z" horiz-adv-x="694" glyph-name="afii10021"/>
<glyph unicode="Е" d="M76 0v754h391v-78h-307v-244h298v-78h-298v-276h307v-78h-391z" horiz-adv-x="534" glyph-name="afii10022"/>
<glyph unicode="Ж" d="M954 0h-24q-55 0 -94.5 27t-56.5 78l-71 214q-13 36 -44 36h-135v-355h-84v355h-135q-31 0 -44 -36l-71 -214q-17 -51 -56.5 -78t-94.5 -27h-24v74h10q64 0 78 43l77 229q8 25 23.5 38t29.5 15v2q-31 16 -45 64l-50 166q-7 22 -24.5 35.5t-33.5 13.5h-27v74h32 q42 0 76 -25.5t47 -68.5l56 -186q6 -19 21 -30t32 -11h123v321h84v-321h123q17 0 32 11t21 30l56 186q13 43 47 68.5t76 25.5h32v-74h-27q-16 0 -33.5 -13.5t-24.5 -35.5l-50 -166q-14 -48 -45 -64v-2q14 -2 29.5 -15t23.5 -38l77 -229q14 -43 78 -43h10v-74z" horiz-adv-x="975" glyph-name="afii10024"/>
<glyph unicode="З" d="M259 65q63 0 107.5 44.5t44.5 106.5q0 67 -54 104t-126 37h-47v78h47q69 0 114 28t45 94q0 61 -34 96.5t-98 35.5q-34 0 -63.5 -13t-43 -24.5t-32.5 -30.5l-52 61q28 31 80 58t113 27q99 0 156.5 -56t57.5 -150q0 -52 -30 -95.5t-77 -63.5q57 -19 92.5 -70.5t35.5 -120.5 q0 -94 -70 -159t-169 -65q-58 0 -109.5 24t-75.5 47t-38 44l62 54q71 -91 164 -91z" horiz-adv-x="561" glyph-name="afii10025"/>
<glyph unicode="И" d="M634 0h-84v557l-443 -557h-26v754h84v-560l443 560h26v-754z" horiz-adv-x="714" glyph-name="afii10026"/>
<glyph unicode="Й" d="M206 880l64 20q26 -68 105 -68t105 68l64 -20q-5 -42 -57 -79t-112 -37t-111.5 36t-57.5 80zM634 0h-84v557l-443 -557h-26v754h84v-560l443 560h26v-754z" horiz-adv-x="714" glyph-name="afii10027"/>
<glyph unicode="К" d="M529 754h32v-74h-27q-16 0 -33.5 -13.5t-24.5 -35.5l-50 -166q-14 -48 -45 -64v-2q14 -2 29.5 -15t23.5 -38l77 -229q14 -43 78 -43h10v-74h-24q-55 0 -94.5 27t-56.5 78l-71 214q-13 36 -44 36h-145v-355h-84v754h84v-321h133q17 0 32 11t21 30l56 186q13 43 47 68.5 t76 25.5z" horiz-adv-x="620" glyph-name="afii10028"/>
<glyph unicode="Л" d="M139 754h458v-754h-84v676h-290v-440q0 -111 -48.5 -173.5t-143.5 -62.5h-22v74h8q67 0 94.5 48.5t27.5 137.5v494z" horiz-adv-x="677" glyph-name="afii10029"/>
<glyph unicode="М" d="M21 0l145 754h27l255 -590l256 590h27l145 -754h-86l-97 510h-2l-229 -510h-28l-228 510h-2l-97 -510h-86z" horiz-adv-x="896" glyph-name="afii10030"/>
<glyph unicode="Н" d="M164 432h386v322h84v-754h-84v354h-386v-354h-84v754h84v-322z" horiz-adv-x="714" glyph-name="afii10031"/>
<glyph unicode="О" d="M431 767q162 0 277.5 -114.5t115.5 -276.5t-115.5 -275.5t-277.5 -113.5t-277.5 113.5t-115.5 275.5t115.5 276.5t277.5 114.5zM431 689q-129 0 -219 -91.5t-90 -220.5q0 -128 90.5 -220t218.5 -92t218.5 92t90.5 220q0 129 -90 220.5t-219 91.5z" horiz-adv-x="862" glyph-name="afii10032"/>
<glyph unicode="П" d="M634 754v-754h-84v676h-386v-676h-84v754h554z" horiz-adv-x="714" glyph-name="afii10033"/>
<glyph unicode="Р" d="M160 330v-330h-84v754h144q62 0 106 -7t81 -33q41 -29 63 -74.5t22 -97.5q0 -102 -72 -162q-61 -50 -179 -50h-81zM160 676v-268h76q172 0 172 136q0 36 -11.5 61t-29 38.5t-45.5 21t-52 9.5t-59 2h-51z" horiz-adv-x="532" glyph-name="afii10034"/>
<glyph unicode="С" d="M665 685l-46 -64q-35 30 -87.5 49t-110.5 19q-125 0 -214.5 -93t-89.5 -219t90 -219t216 -93q125 0 218 88l53 -62q-121 -104 -268 -104q-160 0 -276.5 113.5t-116.5 273.5q0 162 115.5 277.5t277.5 115.5q129 0 239 -82z" horiz-adv-x="717" glyph-name="afii10035"/>
<glyph unicode="Т" d="M289 676v-676h-84v676h-192v78h470v-78h-194z" horiz-adv-x="500" glyph-name="afii10036"/>
<glyph unicode="У" d="M557 754l-227 -518q-23 -54 -41.5 -88t-46.5 -72t-63 -57t-77 -19h-21v80h16q92 0 143 156l1 3l-226 515h94l177 -409h2l179 409h90z" horiz-adv-x="575" glyph-name="afii10037"/>
<glyph unicode="Ф" d="M842 396q0 -133 -94.5 -215.5t-251.5 -82.5h-14v-98h-84v98h-14q-157 0 -251.5 82.5t-94.5 215.5q0 134 89.5 214.5t266.5 80.5h4v63h84v-63h4q177 0 266.5 -80.5t89.5 -214.5zM758 398q0 114 -76.5 166t-199.5 52v-442q129 0 202.5 57t73.5 167zM398 174v442 q-123 0 -199.5 -52t-76.5 -166q0 -110 73.5 -167t202.5 -57z" horiz-adv-x="882" glyph-name="afii10038"/>
<glyph unicode="Х" d="M236 390l-204 364h96l154 -284l154 284h96l-204 -364l223 -390h-96l-173 310l-173 -310h-96z" horiz-adv-x="564" glyph-name="afii10039"/>
<glyph unicode="Ц" d="M635 0h-555v754h84v-676h386v676h84v-676h85v-284h-84v206z" horiz-adv-x="722" glyph-name="afii10040"/>
<glyph unicode="Ч" d="M459 390v364h84v-754h-84v315q-99 -9 -169 -9q-95 0 -159.5 48t-64.5 132v268h84v-276q0 -98 154 -98q92 0 155 10z" horiz-adv-x="623" glyph-name="afii10041"/>
<glyph unicode="Ш" d="M564 78h316v676h84v-754h-884v754h84v-676h316v676h84v-676z" horiz-adv-x="1044" glyph-name="afii10042"/>
<glyph unicode="Щ" d="M1049 -206h-84v206h-885v754h84v-676h316v676h84v-676h316v676h84v-676h85v-284z" horiz-adv-x="1054" glyph-name="afii10043"/>
<glyph unicode="Ъ" d="M240 350v-272h64q193 0 193 138q0 134 -204 134h-53zM156 676h-146v78h230v-326h98q66 0 118 -17.5t88.5 -66t36.5 -124.5q0 -116 -74 -168t-196 -52h-155v676z" horiz-adv-x="610" glyph-name="afii10044"/>
<glyph unicode="Ы" d="M160 350v-272h64q193 0 193 138q0 134 -204 134h-53zM160 754v-326h98q66 0 118 -17.5t88.5 -66t36.5 -124.5q0 -116 -74 -168t-196 -52h-155v754h84zM580 754h84v-754h-84v754z" horiz-adv-x="744" glyph-name="afii10045"/>
<glyph unicode="Ь" d="M160 350v-272h64q193 0 193 138q0 134 -204 134h-53zM160 754v-326h98q66 0 118 -17.5t88.5 -66t36.5 -124.5q0 -116 -74 -168t-196 -52h-155v754h84z" horiz-adv-x="530" glyph-name="afii10046"/>
<glyph unicode="Э" d="M599 354h-372v78h368q-20 108 -104.5 182.5t-194.5 74.5q-58 0 -110.5 -19t-87.5 -49l-46 64q110 82 239 82q162 0 277.5 -115.5t115.5 -277.5q0 -160 -116.5 -273.5t-276.5 -113.5q-147 0 -268 104l53 62q93 -88 218 -88q119 0 207.5 85.5t97.5 203.5z" horiz-adv-x="717" glyph-name="afii10047"/>
<glyph unicode="Ю" d="M651 689q-129 0 -219 -91.5t-90 -220.5q0 -128 90.5 -220t218.5 -92t218.5 92t90.5 220q0 129 -90 220.5t-219 91.5zM259 354h-95v-354h-84v754h84v-322h98q21 143 132 239t257 96q162 0 277.5 -114.5t115.5 -276.5t-115.5 -275.5t-277.5 -113.5q-156 0 -270 106.5 t-122 260.5z" horiz-adv-x="1073" glyph-name="afii10048"/>
<glyph unicode="Я" d="M492 0h-84v336h-89q-35 0 -50 -36l-81 -195q-22 -53 -57 -79t-94 -26h-24v74h10q61 0 78 43l71 174q10 25 26 40t29 17v2q-69 13 -114.5 63.5t-45.5 132.5q0 61 22 103.5t63 64.5t87 31t104 9h149v-754zM408 408v268h-65q-35 0 -59.5 -2t-51.5 -10t-43 -22.5t-27 -40 t-11 -61.5q0 -42 15.5 -69.5t45 -40.5t59.5 -17.5t71 -4.5h66z" horiz-adv-x="570" glyph-name="afii10049"/>
<glyph unicode="а" d="M45 136q0 45 22 77t60 48t78 22.5t87 6.5h92q-3 28 -7 44t-15.5 36t-36.5 29.5t-63 9.5q-82 0 -129 -36l-40 60q60 50 160 50q213 0 213 -219v-264h-80v65h-2q-62 -78 -152 -78q-80 0 -133.5 39.5t-53.5 109.5zM384 196v28h-62q-41 0 -67 -2t-59.5 -9.5t-50.5 -26 t-17 -48.5q0 -79 112 -79q67 0 105.5 39t38.5 98z" horiz-adv-x="535" glyph-name="afii10065"/>
<glyph unicode="б" d="M319 629q-96 -12 -155 -84q-29 -34 -59 -149l2 -1q29 36 79.5 62t109.5 26q94 0 163 -73t69 -176t-72 -175t-175 -72q-107 0 -177.5 75.5t-70.5 200.5q0 181 59 285q32 57 88 97t121 50q48 8 88 26.5t51 32.5l54 -43q-20 -25 -74.5 -50.5t-100.5 -31.5zM449 236 q0 73 -47 123.5t-120 50.5t-120 -50.5t-47 -123.5t47 -123.5t120 -50.5t120 50.5t47 123.5z" horiz-adv-x="562" glyph-name="afii10066"/>
<glyph unicode="в" d="M73 0v470h223q77 0 110 -36t33 -85q0 -63 -60 -88v-2q38 -5 66 -37.5t28 -73.5q0 -26 -6 -48.5t-21.5 -47t-48.5 -38.5t-80 -14h-244zM153 284h115q43 0 66 13t23 45q0 57 -89 57h-115v-115zM153 71h140q98 0 98 72q0 73 -95 73h-143v-145z" horiz-adv-x="511" glyph-name="afii10067"/>
<glyph unicode="г" d="M156 396v-396h-80v470h314v-74h-234z" horiz-adv-x="398" glyph-name="afii10068"/>
<glyph unicode="д" d="M527 -144h-80v144h-356v-144h-80v218q59 4 79 49t20 125v222h345v-396h72v-218zM375 74v322h-185v-189q0 -90 -53 -133h238z" horiz-adv-x="544" glyph-name="afii10069"/>
<glyph unicode="е" d="M485 218h-369q1 -66 47 -111.5t115 -45.5q87 0 137 71l64 -38q-35 -50 -88.5 -78.5t-118.5 -28.5q-105 0 -171.5 69.5t-66.5 172.5q0 109 61 181.5t167 72.5q109 0 169 -77.5t54 -187.5zM120 286h281q-8 52 -47 87.5t-91 35.5t-94 -36t-49 -87z" horiz-adv-x="519" glyph-name="afii10070"/>
<glyph unicode="ж" d="M710 0h-19q-100 0 -125 77l-33 103q-11 34 -45 34h-78v-214h-80v214h-78q-34 0 -45 -34l-33 -103q-25 -77 -125 -77h-19v74h5q56 0 69 39l34 105q10 31 44 38v2q-23 8 -35 42l-21 60q-12 36 -62 36h-5v74h19q82 0 107 -67l34 -90q10 -25 33 -25h78v182h80v-182h78 q23 0 33 25l34 90q25 67 107 67h19v-74h-5q-50 0 -62 -36l-21 -60q-12 -34 -35 -42v-2q34 -7 44 -38l34 -105q13 -39 69 -39h5v-74z" horiz-adv-x="734" glyph-name="afii10072"/>
<glyph unicode="з" d="M101 364l-42 59q24 23 70 41.5t99 18.5q80 0 127 -33t47 -98q0 -31 -21.5 -58t-54.5 -39v-2q41 -7 68.5 -37.5t27.5 -77.5q0 -71 -56.5 -111t-147.5 -40q-63 0 -114 27t-72 62l58 49q13 -23 49 -43.5t73 -20.5q27 0 53.5 5.5t50.5 23.5t24 46q0 79 -102 79h-50v66h36 q45 0 70.5 18t25.5 51q0 28 -26.5 43.5t-70.5 15.5q-72 0 -122 -45z" horiz-adv-x="459" glyph-name="afii10073"/>
<glyph unicode="и" d="M69 0v470h80v-306l290 306h21v-470h-80v306l-290 -306h-21z" horiz-adv-x="528" glyph-name="afii10074"/>
<glyph unicode="й" d="M114 644l64 20q26 -68 95 -68t95 68l64 -20q-5 -43 -52.5 -79.5t-106.5 -36.5t-106 35.5t-53 80.5zM69 0v470h80v-306l290 306h21v-470h-80v306l-290 -306h-21z" horiz-adv-x="528" glyph-name="afii10075"/>
<glyph unicode="к" d="M324 256q34 -7 44 -38l34 -105q13 -39 69 -39h5v-74h-19q-100 0 -125 77l-33 103q-11 34 -45 34h-103v-214h-80v470h80v-182h103q23 0 33 25l34 90q25 67 107 67h19v-74h-5q-50 0 -62 -36l-21 -60q-12 -34 -35 -42v-2z" horiz-adv-x="500" glyph-name="afii10076"/>
<glyph unicode="л" d="M99 470h330v-470h-80v396h-170v-256q0 -63 -37.5 -101.5t-110.5 -38.5h-14v78h2q43 0 61.5 21.5t18.5 75.5v295z" horiz-adv-x="500" glyph-name="afii10077"/>
<glyph unicode="м" d="M611 0h-82l-85 289h-2l-123 -289h-19l-123 288h-2l-85 -288h-82l142 470h18l140 -318h3l139 318h19z" horiz-adv-x="619" glyph-name="afii10078"/>
<glyph unicode="н" d="M149 214v-214h-80v470h80v-182h231v182h80v-470h-80v214h-231z" horiz-adv-x="528" glyph-name="afii10079"/>
<glyph unicode="о" d="M281 -13q-103 0 -175 72t-72 175q0 104 72 176.5t175 72.5t175 -72.5t72 -176.5q0 -103 -72 -175t-175 -72zM281 409q-73 0 -120 -50.5t-47 -123.5t47 -123.5t120 -50.5t120 50.5t47 123.5t-47 123.5t-120 50.5z" horiz-adv-x="562" glyph-name="afii10080"/>
<glyph unicode="п" d="M156 396v-396h-80v470h381v-470h-80v396h-221z" horiz-adv-x="528" glyph-name="afii10081"/>
<glyph unicode="р" d="M301 409q-67 0 -110 -50t-43 -119q0 -73 41.5 -126t112.5 -53q74 0 115.5 51.5t41.5 126.5q0 73 -43 121.5t-115 48.5zM152 470v-67h2q60 80 162 80q100 0 162.5 -73.5t62.5 -175.5q0 -104 -61.5 -175.5t-164.5 -71.5q-102 0 -161 79h-2v-330h-80v734h80z" horiz-adv-x="577" glyph-name="afii10082"/>
<glyph unicode="с" d="M449 414l-51 -54q-49 49 -121 49q-71 0 -118.5 -51t-47.5 -123t45 -123t117 -51q86 0 141 65l54 -50q-74 -89 -189 -89q-107 0 -178.5 71t-71.5 177q0 104 73.5 176t177.5 72q56 0 101 -22t68 -47z" horiz-adv-x="476" glyph-name="afii10083"/>
<glyph unicode="т" d="M259 396v-396h-80v396h-159v74h398v-74h-159z" horiz-adv-x="433" glyph-name="afii10084"/>
<glyph unicode="у" d="M216 -1l-199 471h87l146 -362h2l122 362h87l-195 -529q-75 -205 -197 -205h-13v67h8q82 0 131 137z" horiz-adv-x="472" glyph-name="afii10085"/>
<glyph unicode="ф" d="M652 234q0 -110 -77 -178.5t-189 -68.5v-251h-80v251q-112 0 -189 68.5t-77 178.5q0 117 77.5 183t188.5 66v271h80v-271q111 0 188.5 -66t77.5 -183zM572 234q0 85 -55.5 131t-130.5 46v-354q76 0 131 47t55 130zM306 57v354q-75 0 -130.5 -46t-55.5 -131q0 -83 55 -130 t131 -47z" horiz-adv-x="682" glyph-name="afii10086"/>
<glyph unicode="х" d="M442 470l-159 -218l187 -252h-100l-133 188h-3l-133 -188h-100l187 254l-158 216h98l106 -157h3l107 157h98z" horiz-adv-x="471" glyph-name="afii10087"/>
<glyph unicode="ц" d="M534 -144h-80v144h-383v470h80v-396h231v396h80v-396h72v-218z" horiz-adv-x="540" glyph-name="afii10088"/>
<glyph unicode="ч" d="M360 257v213h80v-470h-80v191q-76 -12 -140 -12q-79 0 -117.5 35t-38.5 113v143h80v-124q0 -33 9 -54t27 -30.5t35 -12.5t41 -3q56 0 104 11z" horiz-adv-x="511" glyph-name="afii10089"/>
<glyph unicode="ш" d="M688 0h-612v470h80v-396h186v396h80v-396h186v396h80v-470z" horiz-adv-x="761" glyph-name="afii10090"/>
<glyph unicode="щ" d="M760 -144h-80v144h-604v470h80v-396h186v396h80v-396h186v396h80v-396h72v-218z" horiz-adv-x="770" glyph-name="afii10091"/>
<glyph unicode="ъ" d="M556 156q0 -28 -6.5 -52t-22.5 -49t-49 -40t-81 -15h-231v396h-146v74h226v-168h128q93 0 137.5 -36t44.5 -110zM474 151q0 31 -23 54t-75 23h-130v-154h127q19 0 40 5.5t41 24.5t20 47z" horiz-adv-x="590" glyph-name="afii10092"/>
<glyph unicode="ы" d="M149 74h117q19 0 40 5.5t41 24.5t20 47q0 31 -23 54t-75 23h-120v-154zM69 0v470h80v-168h118q93 0 137.5 -36t44.5 -110q0 -28 -6.5 -52t-22.5 -49t-49 -40t-81 -15h-221zM520 470h80v-470h-80v470z" horiz-adv-x="669" glyph-name="afii10093"/>
<glyph unicode="ь" d="M150 74h127q38 0 69.5 18t31.5 59q0 31 -23 54t-75 23h-130v-154zM70 0v470h80v-168h128q93 0 137.5 -36t44.5 -110q0 -28 -6.5 -52t-22.5 -49t-49 -40t-81 -15h-231z" horiz-adv-x="494" glyph-name="afii10094"/>
<glyph unicode="э" d="M370 209h-219v64h217q-12 59 -56 97.5t-106 38.5q-72 0 -121 -49l-51 54q23 25 68 47t101 22q104 0 177.5 -72t73.5 -176q0 -106 -71.5 -177t-178.5 -71q-115 0 -189 89l54 50q55 -65 141 -65q65 0 108.5 42.5t51.5 105.5z" horiz-adv-x="476" glyph-name="afii10095"/>
<glyph unicode="ю" d="M471 409q-73 0 -120 -50.5t-47 -123.5t47 -123.5t120 -50.5t120 50.5t47 123.5t-47 123.5t-120 50.5zM225 209h-74v-209h-80v470h80v-187h78q17 86 84.5 143t157.5 57q103 0 175 -72.5t72 -176.5q0 -103 -72 -175t-175 -72q-96 0 -166 63.5t-80 158.5z" horiz-adv-x="745" glyph-name="afii10096"/>
<glyph unicode="я" d="M357 254v150h-91q-124 0 -124 -74q0 -76 124 -76h91zM164 208q-40 6 -71 39.5t-31 78.5q0 58 41 101t124 43h210v-470h-80v193h-94q-37 0 -52 -34l-38 -82q-19 -41 -42.5 -59t-72.5 -18h-19v74h5q25 0 37 8t22 31l28 64q8 19 33 28v3z" horiz-adv-x="508" glyph-name="afii10097"/>
<glyph unicode="ё" d="M161 665q23 0 38.5 -15.5t15.5 -38.5t-15.5 -38.5t-38.5 -15.5t-38.5 15.5t-15.5 38.5t15.5 38.5t38.5 15.5zM358 665q22 0 38 -15.5t16 -38.5t-16 -38.5t-38 -15.5t-38 15.5t-16 38.5t16 38.5t38 15.5zM485 218h-369q1 -66 47 -111.5t115 -45.5q87 0 137 71l64 -38 q-35 -50 -88.5 -78.5t-118.5 -28.5q-105 0 -171.5 69.5t-66.5 172.5q0 109 61 181.5t167 72.5q109 0 169 -77.5t54 -187.5zM120 286h281q-8 52 -47 87.5t-91 35.5t-94 -36t-49 -87z" horiz-adv-x="519" glyph-name="afii10071"/>
<glyph unicode="ђ" d="M277 409q-32 0 -54.5 -12t-34.5 -29t-18.5 -44t-8 -48.5t-1.5 -52.5v-223h-80v568h-49v74h49v183h80v-183h164v-74h-164v-153l2 -2q51 70 134 70q90 0 125 -55t35 -149q0 -99 -41 -197.5t-111 -215.5h-90q79 113 120.5 207.5t41.5 194.5q0 34 -2.5 55t-12 43t-30.5 32.5 t-54 10.5z" horiz-adv-x="498" glyph-name="afii10099"/>
<glyph unicode="ѓ" d="M264 717l64 -48l-163 -134l-40 38zM156 396v-396h-80v470h314v-74h-234z" horiz-adv-x="398" glyph-name="afii10100"/>
<glyph unicode="є" d="M460 76q-74 -89 -189 -89q-107 0 -178.5 71t-71.5 177q0 104 73.5 176t177.5 72q56 0 101 -22t68 -47l-51 -54q-49 49 -121 49q-62 0 -106 -38.5t-56 -97.5h217v-64h-219q8 -63 51.5 -105.5t108.5 -42.5q86 0 141 65z" horiz-adv-x="476" glyph-name="afii10101"/>
<glyph unicode="ѕ" d="M333 396l-67 -35q-9 20 -26 34t-38 14q-22 0 -40 -15t-18 -37q0 -9 2.5 -16.5t10 -14.5t13 -12t18.5 -11t19 -9t23 -10t23 -9q50 -21 79.5 -51t29.5 -84q0 -66 -46.5 -109.5t-112.5 -43.5q-59 0 -103 31.5t-63 87.5l71 30q17 -37 38 -56t58 -19q33 0 54.5 20t21.5 52 q0 29 -22 48t-53 31.5t-62 27t-53 42t-22 68.5q0 58 41 95.5t99 37.5q40 0 74.5 -24.5t50.5 -62.5z" horiz-adv-x="399" glyph-name="afii10102"/>
<glyph unicode="і" d="M171 470v-470h-80v470h80zM131 704q23 0 40 -17t17 -40q0 -24 -17 -40.5t-40 -16.5t-40 16.5t-17 40.5q0 23 17 40t40 17z" horiz-adv-x="262" glyph-name="afii10103"/>
<glyph unicode="ї" d="M171 470v-470h-80v470h80zM33 705q23 0 38.5 -15.5t15.5 -38.5t-15.5 -38.5t-38.5 -15.5t-38.5 15.5t-15.5 38.5t15.5 38.5t38.5 15.5zM230 705q22 0 38 -15.5t16 -38.5t-16 -38.5t-38 -15.5t-38 15.5t-16 38.5t16 38.5t38 15.5z" horiz-adv-x="262" glyph-name="afii10104"/>
<glyph unicode="ј" d="M171 -83q0 -88 -21 -122q-37 -59 -121 -59h-36v80h33q42 0 53.5 29t11.5 100v525h80v-553zM188 647q0 -24 -17 -40.5t-40 -16.5t-40 16.5t-17 40.5q0 23 17 40t40 17t40 -17t17 -40z" horiz-adv-x="262" glyph-name="afii10105"/>
<glyph unicode="љ" d="M707 148q0 -27 -6.5 -50t-22.5 -46.5t-49 -37.5t-81 -14h-201v396h-171v-256q0 -63 -37.5 -101.5t-110.5 -38.5h-14v78h2q43 0 61.5 21.5t18.5 75.5v295h331v-182h98q93 0 137.5 -34.5t44.5 -105.5zM625 143q0 30 -23 50.5t-75 20.5h-100v-140h97q14 0 28.5 2.5t32 9.5 t29 21.5t11.5 35.5z" horiz-adv-x="736" glyph-name="afii10106"/>
<glyph unicode="њ" d="M457 74h97q14 0 28.5 2.5t32 9.5t29 21.5t11.5 35.5q0 30 -23 50.5t-75 20.5h-100v-140zM457 288h98q93 0 137.5 -34.5t44.5 -105.5q0 -27 -6.5 -50t-22.5 -46.5t-49 -37.5t-81 -14h-201v214h-221v-214h-80v470h80v-182h221v182h80v-182z" horiz-adv-x="772" glyph-name="afii10107"/>
<glyph unicode="ћ" d="M160 0h-80v568h-49v74h49v183h80v-183h164v-74h-164v-153l2 -2q51 70 134 70q90 0 125 -55t35 -149v-279h-80v265q0 34 -2.5 55.5t-11.5 44t-30.5 33.5t-54.5 11q-32 0 -54.5 -12t-34.5 -29t-18.5 -44t-8 -48.5t-1.5 -52.5v-223z" horiz-adv-x="528" glyph-name="afii10108"/>
<glyph unicode="ќ" d="M314 717l64 -48l-163 -134l-40 38zM324 256q34 -7 44 -38l34 -105q13 -39 69 -39h5v-74h-19q-100 0 -125 77l-33 103q-11 34 -45 34h-103v-214h-80v470h80v-182h103q23 0 33 25l34 90q25 67 107 67h19v-74h-5q-50 0 -62 -36l-21 -60q-12 -34 -35 -42v-2z" horiz-adv-x="500" glyph-name="afii10109"/>
<glyph unicode="ў" d="M216 -1l-199 471h87l146 -362h2l122 362h87l-195 -529q-75 -205 -197 -205h-13v67h8q82 0 131 137zM81 644l64 20q26 -68 95 -68t95 68l64 -20q-5 -43 -52.5 -79.5t-106.5 -36.5t-106 35.5t-53 80.5z" horiz-adv-x="472" glyph-name="afii10110"/>
<glyph unicode="џ" d="M457 0h-147v-144h-80v144h-154v470h80v-396h221v396h80v-470z" horiz-adv-x="528" glyph-name="afii10193"/>
<glyph unicode="Ґ" d="M469 676h-309v-676h-84v754h309v196h84v-274z" horiz-adv-x="470" glyph-name="afii10050"/>
<glyph unicode="ґ" d="M390 396h-234v-396h-80v470h234v154h80v-228z" horiz-adv-x="398" glyph-name="afii10098"/>
</font>
</defs>
</svg>
